<svg width="135" height="40" viewBox="0 0 135 40" fill="none" xmlns="http://www.w3.org/2000/svg">
<path d="M130 0H5C2.23858 0 0 2.23858 0 5V35C0 37.7614 2.23858 40 5 40H130C132.761 40 135 37.7614 135 35V5C135 2.23858 132.761 0 130 0Z" fill="black"/>
<path d="M130 0.8C131.114 0.8 132.182 1.2425 132.97 2.03015C133.758 2.8178 134.2 3.88609 134.2 5V35C134.2 36.1139 133.758 37.1822 132.97 37.9698C132.182 38.7575 131.114 39.2 130 39.2H5C3.88609 39.2 2.8178 38.7575 2.03015 37.9698C1.2425 37.1822 0.8 36.1139 0.8 35V5C0.8 3.88609 1.2425 2.8178 2.03015 2.03015C2.8178 1.2425 3.88609 0.8 5 0.8H130ZM130 0H5C3.67392 0 2.40215 0.526784 1.46447 1.46447C0.526784 2.40215 0 3.67392 0 5V35C0 36.3261 0.526784 37.5979 1.46447 38.5355C2.40215 39.4732 3.67392 40 5 40H130C131.326 40 132.598 39.4732 133.536 38.5355C134.473 37.5979 135 36.3261 135 35V5C135 3.67392 134.473 2.40215 133.536 1.46447C132.598 0.526784 131.326 0 130 0Z" fill="#A6A6A6"/>
<path d="M47.4205 10.2392C47.4369 10.606 47.3789 10.9722 47.25 11.3159C47.1212 11.6597 46.924 11.9737 46.6705 12.2392C46.3864 12.5325 46.0436 12.7625 45.6645 12.9142C45.2854 13.0658 44.8785 13.1357 44.4705 13.1192C44.0602 13.1284 43.6523 13.0532 43.2722 12.8984C42.892 12.7436 42.5477 12.5124 42.2605 12.2192C41.6778 11.6232 41.3516 10.8228 41.3516 9.98923C41.3516 9.15569 41.6778 8.35527 42.2605 7.75923C42.706 7.32392 43.2702 7.02997 43.8823 6.91432C44.4943 6.79867 45.1269 6.86648 45.7005 7.10923C46.0611 7.25746 46.3828 7.48672 46.6405 7.77923L46.1105 8.30923C45.9119 8.07 45.6603 7.88037 45.3756 7.75539C45.0909 7.6304 44.781 7.57351 44.4705 7.58923C44.0785 7.59194 43.6932 7.69062 43.3482 7.87665C43.0031 8.06267 42.7089 8.33037 42.4912 8.65636C42.2735 8.98234 42.139 9.35669 42.0994 9.74667C42.0598 10.1366 42.1163 10.5304 42.264 10.8935C42.4117 11.2566 42.6461 11.578 42.9467 11.8296C43.2473 12.0812 43.6049 12.2553 43.9883 12.3368C44.3718 12.4182 44.7693 12.4045 45.1462 12.2969C45.5231 12.1892 45.8679 11.9909 46.1505 11.7192C46.456 11.3843 46.6331 10.9522 46.6505 10.4992H44.4705V9.77923H47.3805C47.4033 9.9316 47.4166 10.0852 47.4205 10.2392Z" fill="white" stroke="white" stroke-width="0.2" stroke-miterlimit="10"/>
<path d="M51.9995 7.74H49.2995V9.64H51.7595V10.36H49.2995V12.26H51.9995V13H48.5195V7H51.9995V7.74Z" fill="white" stroke="white" stroke-width="0.2" stroke-miterlimit="10"/>
<path d="M55.2801 13H54.5101V7.74H52.8301V7H57.0001V7.74H55.2801V13Z" fill="white" stroke="white" stroke-width="0.2" stroke-miterlimit="10"/>
<path d="M59.9414 13V7H60.7114V13H59.9414Z" fill="white" stroke="white" stroke-width="0.2" stroke-miterlimit="10"/>
<path d="M64.1297 13H63.3597V7.74H61.6797V7H65.7997V7.74H64.1297V13Z" fill="white" stroke="white" stroke-width="0.2" stroke-miterlimit="10"/>
<path d="M73.6102 12.2182C73.3213 12.5072 72.9784 12.7366 72.6009 12.893C72.2234 13.0495 71.8188 13.13 71.4102 13.13C71.0015 13.13 70.5969 13.0495 70.2194 12.893C69.8419 12.7366 69.499 12.5072 69.2102 12.2182C68.6448 11.6172 68.3301 10.8233 68.3301 9.99819C68.3301 9.17313 68.6448 8.37914 69.2102 7.77819C69.4928 7.48099 69.8346 7.24642 70.2136 7.08967C70.5925 6.93291 71.0002 6.85746 71.4102 6.86819C71.8196 6.86171 72.2259 6.93911 72.6043 7.09561C72.9826 7.25211 73.325 7.48441 73.6102 7.77819C73.8977 8.07068 74.1237 8.41782 74.2749 8.79912C74.426 9.18041 74.4992 9.58813 74.4902 9.99819C74.5033 10.4088 74.4319 10.8177 74.2806 11.1995C74.1292 11.5814 73.901 11.9281 73.6102 12.2182ZM69.7802 11.7182C69.9932 11.9341 70.247 12.1055 70.5268 12.2225C70.8066 12.3395 71.1069 12.3997 71.4102 12.3997C71.7135 12.3997 72.0137 12.3395 72.2935 12.2225C72.5733 12.1055 72.8271 11.9341 73.0402 11.7182C73.4717 11.2493 73.7112 10.6354 73.7112 9.99819C73.7112 9.36099 73.4717 8.74706 73.0402 8.27819C72.8271 8.06231 72.5733 7.8909 72.2935 7.77391C72.0137 7.65691 71.7135 7.59667 71.4102 7.59667C71.1069 7.59667 70.8066 7.65691 70.5268 7.77391C70.247 7.8909 69.9932 8.06231 69.7802 8.27819C69.3487 8.74706 69.1092 9.36099 69.1092 9.99819C69.1092 10.6354 69.3487 11.2493 69.7802 11.7182Z" fill="white" stroke="white" stroke-width="0.2" stroke-miterlimit="10"/>
<path d="M75.5801 13V7H76.5101L79.4301 11.67V10.51V7H80.2001V13H79.4001L76.3501 8.11V9.26V13H75.5801Z" fill="white" stroke="white" stroke-width="0.2" stroke-miterlimit="10"/>
<path d="M68.1401 21.7519C67.2976 21.7539 66.4745 22.0056 65.7751 22.4754C65.0756 22.9451 64.5312 23.6117 64.2106 24.3909C63.89 25.17 63.8076 26.0268 63.9739 26.8528C64.1402 27.6787 64.5477 28.4368 65.1449 29.0312C65.7421 29.6256 66.5021 30.0295 67.3288 30.1919C68.1556 30.3544 69.0119 30.268 69.7896 29.9438C70.5672 29.6195 71.2313 29.0719 71.6977 28.3703C72.1642 27.6686 72.4121 26.8444 72.4101 26.0019C72.4183 25.4398 72.3132 24.8819 72.1013 24.3612C71.8893 23.8406 71.5748 23.3679 71.1764 22.9714C70.7779 22.5748 70.3038 22.2625 69.7822 22.053C69.2606 21.8435 68.7021 21.7411 68.1401 21.7519ZM68.1401 28.5819C67.6237 28.618 67.1083 28.4979 66.6611 28.2373C66.2138 27.9766 65.8553 27.5874 65.6321 27.1203C65.409 26.6532 65.3315 26.1298 65.4098 25.618C65.4881 25.1063 65.7185 24.63 66.0711 24.2509C66.4237 23.8719 66.8821 23.6077 67.3869 23.4927C67.8916 23.3776 68.4193 23.4171 68.9013 23.606C69.3833 23.7948 69.7973 24.1243 70.0896 24.5516C70.3819 24.9789 70.5388 25.4842 70.5401 26.0019C70.5562 26.3299 70.5065 26.6578 70.3938 26.9663C70.2812 27.2748 70.1079 27.5576 69.8842 27.7981C69.6606 28.0385 69.391 28.2317 69.0914 28.3664C68.7919 28.501 68.4684 28.5743 68.1401 28.5819ZM58.8201 21.7519C57.9776 21.7539 57.1545 22.0056 56.4551 22.4754C55.7556 22.9451 55.2112 23.6117 54.8906 24.3909C54.57 25.17 54.4876 26.0268 54.6539 26.8528C54.8202 27.6787 55.2277 28.4368 55.8249 29.0312C56.4221 29.6256 57.1821 30.0295 58.0088 30.1919C58.8356 30.3544 59.6919 30.268 60.4696 29.9438C61.2472 29.6195 61.9113 29.0719 62.3777 28.3703C62.8442 27.6686 63.0921 26.8444 63.0901 26.0019C63.0982 25.4398 62.9932 24.8819 62.7813 24.3612C62.5693 23.8406 62.2548 23.3679 61.8564 22.9714C61.4579 22.5748 60.9838 22.2625 60.4622 22.053C59.9406 21.8435 59.3821 21.7411 58.8201 21.7519ZM58.8201 28.5819C58.3037 28.618 57.7883 28.4979 57.3411 28.2373C56.8938 27.9766 56.5353 27.5874 56.3121 27.1203C56.089 26.6532 56.0115 26.1298 56.0898 25.618C56.1681 25.1063 56.3985 24.63 56.7511 24.2509C57.1037 23.8719 57.5621 23.6077 58.0669 23.4927C58.5716 23.3776 59.0993 23.4171 59.5813 23.606C60.0633 23.7948 60.4773 24.1243 60.7696 24.5516C61.0619 24.9789 61.2188 25.4842 61.2201 26.0019C61.2362 26.3299 61.1865 26.6578 61.0738 26.9663C60.9612 27.2748 60.7879 27.5576 60.5642 27.7981C60.3406 28.0385 60.071 28.2317 59.7714 28.3664C59.4719 28.501 59.1484 28.5743 58.8201 28.5819ZM47.7401 23.0619V24.8619H52.0601C51.9924 25.7097 51.6399 26.5097 51.0601 27.1319C50.6268 27.5734 50.1056 27.919 49.5302 28.1464C48.9549 28.3738 48.3382 28.4778 47.7201 28.4519C46.4471 28.4519 45.2262 27.9462 44.326 27.046C43.4258 26.1458 42.9201 24.9249 42.9201 23.6519C42.9201 22.3788 43.4258 21.1579 44.326 20.2578C45.2262 19.3576 46.4471 18.8519 47.7201 18.8519C48.9405 18.8337 50.119 19.2972 51.0001 20.1419L52.2701 18.8719C51.6741 18.2824 50.9664 17.8178 50.1886 17.5052C49.4107 17.1927 48.5783 17.0386 47.7401 17.0519C46.8511 17.0173 45.9643 17.1625 45.1327 17.4788C44.3012 17.7952 43.5421 18.2761 42.9009 18.8929C42.2596 19.5096 41.7495 20.2495 41.4011 21.0681C41.0527 21.8867 40.873 22.7672 40.873 23.6569C40.873 24.5466 41.0527 25.4271 41.4011 26.2457C41.7495 27.0643 42.2596 27.8041 42.9009 28.4209C43.5421 29.0376 44.3012 29.5186 45.1327 29.8349C45.9643 30.1513 46.8511 30.2965 47.7401 30.2619C48.5955 30.296 49.4485 30.1489 50.243 29.83C51.0375 29.5112 51.7556 29.0279 52.3501 28.4119C53.4002 27.2583 53.9598 25.7411 53.9101 24.1819C53.9137 23.8066 53.8836 23.4318 53.8201 23.0619H47.7401ZM93.0501 24.4619C92.7893 23.6946 92.3016 23.0247 91.6516 22.5407C91.0016 22.0568 90.2199 21.7817 89.4101 21.7519C88.8631 21.7508 88.3217 21.8619 87.8193 22.0784C87.317 22.2949 86.8644 22.6121 86.4895 23.0104C86.1146 23.4087 85.8254 23.8797 85.6397 24.3943C85.4541 24.9088 85.3759 25.4559 85.4101 26.0019C85.4016 26.9147 85.6885 27.8059 86.2282 28.5421C86.7679 29.2784 87.5313 29.8204 88.4044 30.087C89.2774 30.3537 90.2134 30.3307 91.0723 30.0216C91.9313 29.7125 92.6672 29.1337 93.1701 28.3719L91.7201 27.3719C91.5039 27.7322 91.1974 28.0297 90.8307 28.2349C90.4641 28.4401 90.0502 28.546 89.6301 28.5419C89.1967 28.5598 88.768 28.4461 88.4003 28.2159C88.0327 27.9857 87.7432 27.6496 87.5701 27.2519L93.2601 24.9019L93.0501 24.4619ZM87.2501 25.8819C87.2298 25.5713 87.2717 25.2597 87.3734 24.9655C87.475 24.6713 87.6343 24.4003 87.842 24.1684C88.0497 23.9365 88.3015 23.7484 88.5828 23.6151C88.8641 23.4817 89.1691 23.4058 89.4801 23.3919C89.8023 23.3722 90.1231 23.4481 90.4024 23.6099C90.6817 23.7718 90.907 24.0125 91.0501 24.3019L87.2501 25.8819ZM82.6301 30.0019H84.5001V17.5019H82.6301V30.0019ZM79.5701 22.7019H79.5001C79.2207 22.3837 78.876 22.1297 78.4894 21.9571C78.1028 21.7845 77.6835 21.6974 77.2601 21.7019C76.1673 21.7549 75.1367 22.2263 74.3821 23.0185C73.6274 23.8106 73.2064 24.8628 73.2064 25.9569C73.2064 27.051 73.6274 28.1031 74.3821 28.8953C75.1367 29.6875 76.1673 30.1589 77.2601 30.2119C77.6841 30.2204 78.1047 30.1352 78.4919 29.9623C78.8791 29.7894 79.2234 29.5332 79.5001 29.2119H79.5701V29.8219C79.5701 31.4519 78.7001 32.3219 77.3001 32.3219C76.8324 32.3116 76.3783 32.1626 75.9955 31.8937C75.6127 31.6249 75.3185 31.2483 75.1501 30.8119L73.5301 31.4819C73.8296 32.2341 74.3504 32.8778 75.0235 33.3277C75.6966 33.7777 76.4905 34.0128 77.3001 34.0019C79.4901 34.0019 81.3001 32.7119 81.3001 29.5719V22.0019H79.5701V22.7019ZM77.4201 28.5819C76.7649 28.541 76.1499 28.252 75.7004 27.7735C75.2509 27.2951 75.0006 26.6633 75.0006 26.0069C75.0006 25.3504 75.2509 24.7186 75.7004 24.2402C76.1499 23.7618 76.7649 23.4727 77.4201 23.4319C77.7403 23.4457 78.0545 23.5238 78.344 23.6615C78.6334 23.7992 78.8922 23.9938 79.1049 24.2336C79.3176 24.4733 79.4799 24.7534 79.5822 25.0572C79.6844 25.361 79.7245 25.6823 79.7001 26.0019C79.7274 26.3226 79.6893 26.6455 79.5883 26.951C79.4872 27.2566 79.3252 27.5385 79.1121 27.7797C78.8989 28.0208 78.6391 28.2163 78.3483 28.3542C78.0575 28.492 77.7417 28.5695 77.4201 28.5819ZM101.81 17.5019H97.3301V30.0019H99.2001V25.2619H101.81C102.343 25.3002 102.878 25.2282 103.382 25.0506C103.886 24.873 104.348 24.5934 104.739 24.2294C105.13 23.8653 105.442 23.4246 105.655 22.9347C105.869 22.4448 105.979 21.9162 105.979 21.3819C105.979 20.8475 105.869 20.319 105.655 19.829C105.442 19.3391 105.13 18.8984 104.739 18.5344C104.348 18.1703 103.886 17.8908 103.382 17.7131C102.878 17.5355 102.343 17.4636 101.81 17.5019ZM101.81 23.5019H99.2001V19.2419H101.85C102.131 19.2419 102.409 19.2972 102.669 19.4048C102.929 19.5123 103.165 19.6699 103.363 19.8687C103.562 20.0674 103.72 20.3033 103.827 20.5629C103.935 20.8226 103.99 21.1008 103.99 21.3819C103.99 21.6629 103.935 21.9412 103.827 22.2008C103.72 22.4605 103.562 22.6964 103.363 22.8951C103.165 23.0938 102.929 23.2514 102.669 23.359C102.409 23.4665 102.131 23.5219 101.85 23.5219L101.81 23.5019ZM113.35 21.7119C112.669 21.6699 111.991 21.8284 111.399 22.1679C110.807 22.5074 110.328 23.0129 110.02 23.6219L111.67 24.3119C111.837 24.0113 112.087 23.7654 112.39 23.6039C112.694 23.4424 113.038 23.3723 113.38 23.4019C113.617 23.3742 113.858 23.394 114.088 23.4602C114.317 23.5264 114.531 23.6377 114.718 23.7876C114.904 23.9375 115.058 24.1229 115.172 24.3331C115.286 24.5433 115.356 24.774 115.38 25.0119V25.1319C114.779 24.8158 114.109 24.651 113.43 24.6519C111.65 24.6519 109.83 25.6519 109.83 27.4719C109.848 27.8587 109.943 28.2381 110.11 28.5874C110.277 28.9368 110.513 29.249 110.803 29.5055C111.093 29.762 111.432 29.9576 111.799 30.0807C112.166 30.2037 112.554 30.2518 112.94 30.2219C113.409 30.2478 113.877 30.1485 114.295 29.9341C114.714 29.7198 115.067 29.398 115.32 29.0019H115.38V30.0019H117.18V25.1919C117.18 23.0019 115.52 21.7319 113.39 21.7319L113.35 21.7119ZM113.12 28.5619C112.51 28.5619 111.66 28.2519 111.66 27.5019C111.66 26.5019 112.72 26.1619 113.66 26.1619C114.254 26.1472 114.841 26.2923 115.36 26.5819C115.297 27.1249 115.04 27.6268 114.635 27.9946C114.231 28.3623 113.707 28.571 113.16 28.5819L113.12 28.5619ZM123.74 22.0019L121.6 27.4219H121.54L119.32 22.0019H117.32L120.65 29.5819L118.75 33.7919H120.7L125.82 22.0019H123.74ZM106.94 30.0019H108.8V17.5019H106.94V30.0019Z" fill="white"/>
<path d="M10.4391 7.53875C10.1096 7.92837 9.94147 8.42921 9.96914 8.93875V31.0588C9.93512 31.5691 10.104 32.0723 10.4391 32.4587L10.5091 32.5388L22.8991 20.1488V19.8488L10.5091 7.46875L10.4391 7.53875Z" fill="url(#paint0_linear_3403_48171)"/>
<path d="M27.0004 24.2787L22.9004 20.1488V19.8488L27.0004 15.7188L27.0904 15.7788L32.0004 18.5588C33.4004 19.3488 33.4004 20.6488 32.0004 21.4488L27.1104 24.2288L27.0004 24.2787Z" fill="url(#paint1_linear_3403_48171)"/>
<path d="M27.1214 24.22L22.9014 20L10.4414 32.46C10.724 32.7115 11.0857 32.8562 11.4638 32.869C11.8418 32.8818 12.2125 32.7619 12.5114 32.53L27.1214 24.22Z" fill="url(#paint2_linear_3403_48171)"/>
<path d="M27.1214 15.7805L12.5114 7.48046C12.2144 7.24537 11.8441 7.12251 11.4655 7.13349C11.0869 7.14446 10.7243 7.28857 10.4414 7.54046L22.9014 20.0005L27.1214 15.7805Z" fill="url(#paint3_linear_3403_48171)"/>
<path opacity="0.2" d="M27.0014 24.1328L12.5114 32.3828C12.2234 32.6002 11.8723 32.7178 11.5114 32.7178C11.1505 32.7178 10.7995 32.6002 10.5114 32.3828L10.4414 32.4528L10.5114 32.5328C10.7995 32.7502 11.1505 32.8678 11.5114 32.8678C11.8723 32.8678 12.2234 32.7502 12.5114 32.5328L27.1214 24.2228L27.0014 24.1328Z" fill="black"/>
<path opacity="0.12" d="M10.4399 32.3202C10.1187 31.9235 9.96126 31.4191 9.99988 30.9102V31.0602C9.96585 31.5705 10.1348 32.0737 10.4699 32.4602L10.5399 32.3902L10.4399 32.3202Z" fill="black"/>
<path opacity="0.12" d="M32 21.3L27 24.13L27.09 24.22L32 21.44C32.2898 21.3174 32.5413 21.119 32.7278 20.8656C32.9143 20.6122 33.0291 20.3132 33.06 20C32.9975 20.2846 32.869 20.5505 32.6849 20.7763C32.5007 21.0021 32.2662 21.1815 32 21.3Z" fill="black"/>
<path opacity="0.25" d="M12.5088 7.62096L31.9988 18.701C32.2649 18.8195 32.4995 18.9989 32.6836 19.2247C32.8677 19.4505 32.9962 19.7164 33.0588 20.001C33.0279 19.6878 32.9131 19.3888 32.7265 19.1354C32.54 18.8819 32.2886 18.6835 31.9988 18.561L12.5088 7.48095C11.1188 6.68095 9.96875 7.34096 9.96875 8.94096V9.09096C9.99875 7.49096 11.1188 6.83096 12.5088 7.62096Z" fill="white"/>
<defs>
<linearGradient id="paint0_linear_3403_48171" x1="21.7991" y1="8.70875" x2="5.01914" y2="25.4888" gradientUnits="userSpaceOnUse">
<stop stop-color="#00A0FF"/>
<stop offset="0.01" stop-color="#00A1FF"/>
<stop offset="0.26" stop-color="#00BEFF"/>
<stop offset="0.51" stop-color="#00D2FF"/>
<stop offset="0.76" stop-color="#00DFFF"/>
<stop offset="1" stop-color="#00E3FF"/>
</linearGradient>
<linearGradient id="paint1_linear_3403_48171" x1="33.8304" y1="19.9987" x2="9.64039" y2="19.9987" gradientUnits="userSpaceOnUse">
<stop stop-color="#FFE000"/>
<stop offset="0.41" stop-color="#FFBD00"/>
<stop offset="0.78" stop-color="#FFA500"/>
<stop offset="1" stop-color="#FF9C00"/>
</linearGradient>
<linearGradient id="paint2_linear_3403_48171" x1="24.8314" y1="22.3" x2="2.0714" y2="45.05" gradientUnits="userSpaceOnUse">
<stop stop-color="#FF3A44"/>
<stop offset="1" stop-color="#C31162"/>
</linearGradient>
<linearGradient id="paint3_linear_3403_48171" x1="7.30141" y1="0.180458" x2="17.4614" y2="10.3405" gradientUnits="userSpaceOnUse">
<stop stop-color="#32A071"/>
<stop offset="0.07" stop-color="#2DA771"/>
<stop offset="0.48" stop-color="#15CF74"/>
<stop offset="0.8" stop-color="#06E775"/>
<stop offset="1" stop-color="#00F076"/>
</linearGradient>
</defs>
</svg>
